<svg xmlns="http://www.w3.org/2000/svg" width="20.500" height="18.348" viewBox="0 0 20.500 18.348" fill="none">
  <path d="M 7.75 1.5 C 4.298 1.5 1.5 4.298 1.5 7.75 C 1.5 10.242 2.959 12.395 5.072 13.399 C 5.333 13.523 5.5 13.787 5.5 14.076 L 5.5 16.519 L 7.97 14.203 C 8.109 14.073 8.293 14 8.483 14 L 12.75 14 C 16.202 14 19 11.202 19 7.75 C 19 4.298 16.202 1.5 12.75 1.5 L 7.75 1.5 Z M 0 7.75 C 0 3.47 3.47 0 7.75 0 L 12.75 0 C 17.03 0 20.5 3.47 20.5 7.75 C 20.5 12.03 17.03 15.5 12.75 15.5 L 8.78 15.5 L 6.105 18.008 C 5.307 18.756 4 18.19 4 17.096 L 4 14.534 C 1.616 13.213 0 10.671 0 7.75 Z" fill="currentColor" fill-rule="evenodd"></path>
</svg>