<svg xmlns="http://www.w3.org/2000/svg" width="21.500" height="21.500" viewBox="0 0 21.500 21.500" fill="none">
  <path d="M 11.5 4.75 C 11.5 4.336 11.164 4 10.75 4 C 10.336 4 10 4.336 10 4.75 L 10 10.439 L 5.72 14.72 C 5.427 15.013 5.427 15.487 5.72 15.78 C 6.013 16.073 6.487 16.073 6.78 15.78 L 11.28 11.28 C 11.421 11.14 11.5 10.949 11.5 10.75 L 11.5 4.75 Z" fill="currentColor"></path>
  <path d="M 10.75 0 C 4.813 0 0 4.813 0 10.75 C 0 16.687 4.813 21.5 10.75 21.5 C 16.687 21.5 21.5 16.687 21.5 10.75 C 21.5 4.813 16.687 0 10.75 0 Z M 1.5 10.75 C 1.5 5.641 5.641 1.5 10.75 1.5 C 15.859 1.5 20 5.641 20 10.75 C 20 15.859 15.859 20 10.75 20 C 5.641 20 1.5 15.859 1.5 10.75 Z" fill="currentColor" fill-rule="evenodd"></path>
</svg>