<svg xmlns="http://www.w3.org/2000/svg" width="21.500" height="21.500" viewBox="0 0 21.500 21.500" fill="none">
  <path d="M 4 10.75 C 4 10.336 4.336 10 4.75 10 L 6.158 10 L 5.533 7.971 C 5.411 7.575 5.634 7.155 6.029 7.033 C 6.425 6.911 6.845 7.134 6.967 7.529 L 7.727 10 L 9.081 10 L 10.05 7.481 C 10.165 7.182 10.456 6.989 10.776 7 C 11.095 7.011 11.373 7.224 11.467 7.529 L 12.227 10 L 13.581 10 L 14.55 7.481 C 14.699 7.094 15.133 6.901 15.519 7.05 C 15.906 7.199 16.099 7.633 15.95 8.019 L 15.188 10 L 16.75 10 C 17.164 10 17.5 10.336 17.5 10.75 C 17.5 11.164 17.164 11.5 16.75 11.5 L 14.611 11.5 L 13.45 14.519 C 13.335 14.818 13.044 15.011 12.724 15 C 12.405 14.989 12.127 14.776 12.033 14.471 L 11.119 11.5 L 10.111 11.5 L 8.95 14.519 C 8.835 14.818 8.544 15.011 8.224 15 C 7.905 14.989 7.627 14.776 7.533 14.471 L 6.619 11.5 L 4.75 11.5 C 4.336 11.5 4 11.164 4 10.75 Z M 8.189 11.5 L 8.329 11.956 L 8.504 11.5 L 8.189 11.5 Z M 12.689 11.5 L 12.829 11.956 L 13.004 11.5 L 12.689 11.5 Z" fill="currentColor" fill-rule="evenodd"></path>
  <path d="M 0 10.75 C 0 4.813 4.813 0 10.75 0 C 16.687 0 21.5 4.813 21.5 10.75 C 21.5 16.687 16.687 21.5 10.75 21.5 C 4.813 21.5 0 16.687 0 10.75 Z M 10.75 1.5 C 5.641 1.5 1.5 5.641 1.5 10.75 C 1.5 15.859 5.641 20 10.75 20 C 15.859 20 20 15.859 20 10.75 C 20 5.641 15.859 1.5 10.75 1.5 Z" fill="currentColor" fill-rule="evenodd"></path>
</svg>