<svg xmlns="http://www.w3.org/2000/svg" width="19.500" height="13.500" viewBox="0 0 19.500 13.500" fill="none">
  <path d="M 2.75 0 C 1.231 0 0 1.231 0 2.75 L 0 10.75 C 0 12.269 1.231 13.5 2.75 13.5 L 16.75 13.5 C 18.269 13.5 19.5 12.269 19.5 10.75 L 19.5 2.75 C 19.5 1.231 18.269 0 16.75 0 L 2.75 0 Z M 1.5 2.75 C 1.5 2.06 2.06 1.5 2.75 1.5 L 16.75 1.5 C 17.44 1.5 18 2.06 18 2.75 L 18 2.809 L 10.357 7.055 C 9.979 7.265 9.52 7.265 9.143 7.055 L 1.5 2.809 L 1.5 2.75 Z M 1.5 4.525 L 1.5 10.75 C 1.5 11.44 2.06 12 2.75 12 L 16.75 12 C 17.44 12 18 11.44 18 10.75 L 18 4.525 L 11.085 8.366 C 10.255 8.828 9.245 8.828 8.414 8.366 L 1.5 4.525 Z" fill="currentColor" fill-rule="evenodd"></path>
</svg>