<svg xmlns="http://www.w3.org/2000/svg" width="19.501" height="17.500" viewBox="0 0 19.501 17.500" fill="none">
  <path d="M 9.751 17.5 C 9.451 17.5 9.161 17.41 8.921 17.25 C 4.481 14.33 -0.059 10.6 0.001 5.14 C 0.031 2.31 2.371 0 5.211 0 C 7.461 0 8.961 1.35 9.751 2.33 C 10.541 1.35 12.041 0 14.291 0 C 17.131 0 19.471 2.31 19.501 5.14 C 19.561 10.6 15.031 14.33 10.591 17.25 C 10.341 17.41 10.051 17.5 9.761 17.5 L 9.751 17.5 Z M 5.211 1.5 C 3.191 1.5 1.521 3.14 1.501 5.16 C 1.451 9.9 5.641 13.3 9.741 16 C 13.861 13.3 18.051 9.9 18.001 5.16 C 17.981 3.14 16.321 1.5 14.291 1.5 C 11.731 1.5 10.431 3.98 10.411 4 C 10.151 4.5 9.331 4.5 9.081 4 C 9.031 3.9 7.741 1.5 5.201 1.5 L 5.211 1.5 Z" fill="currentColor" fill-rule="nonzero"></path>
</svg>