<svg xmlns="http://www.w3.org/2000/svg" width="19.500" height="19.500" viewBox="0 0 19.500 19.500" fill="none">
  <path d="M 7.75 6.75 C 7.75 7.578 7.078 8.25 6.25 8.25 C 5.422 8.25 4.75 7.578 4.75 6.75 C 4.75 5.922 5.422 5.25 6.25 5.25 C 7.078 5.25 7.75 5.922 7.75 6.75 Z" fill="currentColor" fill-rule="nonzero"></path>
  <path d="M 0 2.75 C 0 1.231 1.231 0 2.75 0 L 16.75 0 C 18.269 0 19.5 1.231 19.5 2.75 L 19.5 16.75 C 19.5 18.269 18.269 19.5 16.75 19.5 L 2.75 19.5 C 1.235 19.5 0.007 18.275 0 16.762 C 0 16.755 0 16.748 0 16.741 L 0 2.75 Z M 1.55 17.102 C 1.702 17.621 2.182 18 2.75 18 L 16.75 18 C 17.44 18 18 17.44 18 16.75 L 18 14.561 L 12.667 9.228 L 1.55 17.102 Z M 18 12.439 L 13.28 7.72 C 13.022 7.461 12.615 7.427 12.317 7.638 L 1.5 15.3 L 1.5 2.75 C 1.5 2.06 2.06 1.5 2.75 1.5 L 16.75 1.5 C 17.44 1.5 18 2.06 18 2.75 L 18 12.439 Z" fill="currentColor" fill-rule="evenodd"></path>
</svg>