<svg xmlns="http://www.w3.org/2000/svg" width="17.890" height="22.034" viewBox="0 0 17.890 22.034" fill="none">
  <path d="M 10.854 0.236 C 9.796 -0.375 8.453 0.259 8.253 1.464 L 7.841 3.942 L 0.755 8.84 C -0.302 9.57 -0.238 11.153 0.875 11.795 L 5.785 14.63 L 2.16 20.909 C 1.953 21.267 2.076 21.726 2.435 21.933 C 2.793 22.14 3.252 22.017 3.459 21.659 L 7.084 15.38 L 11.994 18.215 C 13.107 18.857 14.509 18.122 14.614 16.841 L 15.313 8.255 L 17.252 6.66 C 18.196 5.884 18.073 4.404 17.015 3.793 L 10.854 0.236 Z M 12.744 16.916 C 12.903 17.007 13.104 16.902 13.119 16.719 L 13.843 7.817 C 13.86 7.615 13.958 7.428 14.114 7.299 L 16.299 5.502 C 16.434 5.391 16.416 5.179 16.265 5.092 L 10.104 1.535 C 9.953 1.448 9.761 1.538 9.733 1.71 L 9.268 4.501 C 9.235 4.701 9.122 4.88 8.955 4.995 L 1.608 10.074 C 1.457 10.178 1.466 10.404 1.625 10.496 L 12.744 16.916 Z" fill="currentColor" fill-rule="evenodd"></path>
</svg>