<svg xmlns="http://www.w3.org/2000/svg" width="21.500" height="21.500" viewBox="0 0 21.500 21.500" fill="none">
  <path d="M 14.78 14.78 C 14.487 15.073 14.013 15.073 13.72 14.78 L 10.75 11.811 L 7.78 14.78 C 7.487 15.073 7.013 15.073 6.72 14.78 C 6.427 14.487 6.427 14.013 6.72 13.72 L 9.689 10.75 L 6.72 7.78 C 6.427 7.487 6.427 7.013 6.72 6.72 C 7.013 6.427 7.487 6.427 7.78 6.72 L 10.75 9.689 L 13.72 6.72 C 14.013 6.427 14.487 6.427 14.78 6.72 C 15.073 7.013 15.073 7.487 14.78 7.78 L 11.811 10.75 L 14.78 13.72 C 15.073 14.013 15.073 14.487 14.78 14.78 Z" fill="currentColor" fill-rule="nonzero"></path>
  <path d="M 0 10.75 C 0 4.813 4.813 0 10.75 0 C 16.687 0 21.5 4.813 21.5 10.75 C 21.5 16.687 16.687 21.5 10.75 21.5 C 4.813 21.5 0 16.687 0 10.75 Z M 10.75 1.5 C 5.641 1.5 1.5 5.641 1.5 10.75 C 1.5 15.859 5.641 20 10.75 20 C 15.859 20 20 15.859 20 10.75 C 20 5.641 15.859 1.5 10.75 1.5 Z" fill="currentColor" fill-rule="evenodd"></path>
</svg>